<?xml version="1.0" encoding="UTF-8" standalone="no"?>
<!-- Created with Inkscape (http://www.inkscape.org/) -->

<svg
   width="1280"
   height="720"
   viewBox="0 0 338.66666 190.50001"
   version="1.1"
   id="svg214177"
   inkscape:version="1.1.1 (3bf5ae0d25, 2021-09-20)"
   sodipodi:docname="end.svg"
   xmlns:inkscape="http://www.inkscape.org/namespaces/inkscape"
   xmlns:sodipodi="http://sodipodi.sourceforge.net/DTD/sodipodi-0.dtd"
   xmlns="http://www.w3.org/2000/svg"
   xmlns:svg="http://www.w3.org/2000/svg">
  <sodipodi:namedview
     id="namedview214179"
     pagecolor="#505050"
     bordercolor="#eeeeee"
     borderopacity="1"
     inkscape:pageshadow="0"
     inkscape:pageopacity="0"
     inkscape:pagecheckerboard="0"
     inkscape:document-units="mm"
     showgrid="false"
     units="px"
     inkscape:zoom="7.5016866"
     inkscape:cx="663.11754"
     inkscape:cy="389.04584"
     inkscape:window-width="1920"
     inkscape:window-height="1057"
     inkscape:window-x="1912"
     inkscape:window-y="-8"
     inkscape:window-maximized="1"
     inkscape:current-layer="g236876" />
  <defs
     id="defs214174" />
  <g
     inkscape:label="Layer 1"
     inkscape:groupmode="layer"
     id="layer1">
    <g
       id="g235271"
       style="stroke:#000000;stroke-opacity:1">
      <path
         style="fill:#000000;stroke:none;stroke-width:0.264583px;stroke-linecap:butt;stroke-linejoin:miter;stroke-opacity:1;fill-opacity:1"
         d="m 338.66667,79.375 c -4.64538,0 -11.30738,-5.64516 -27.00964,-8.987083 -14.27209,-3.037537 -21.91452,-4.777321 -36.58466,-4.000697 -13.5732,0.71855 -26.79709,2.795495 -39.86117,6.714566 -5.52336,1.656943 -34.85282,11.583961 -43.93076,15.260381 -14.40525,5.833896 -28.5216,12.218633 -43.51337,16.715983 C 99.353049,119.60179 48.287567,79.375 0,79.375 V 190.5 h 338.66667 z"
         id="path214273"
         sodipodi:nodetypes="cssssscccc" />
      <g
         aria-label="juice"
         transform="rotate(-163.11955)"
         id="text219205"
         style="font-size:10.5833px;line-height:1.25;font-family:'Spline Sans';-inkscape-font-specification:'Spline Sans';stroke-width:0.264583;stroke:#000000;stroke-opacity:1">
        <path
           d="m -79.963747,-65.630774 q -0.25929,0 -0.444498,-0.04762 -0.185208,-0.04762 -0.349249,-0.111125 v -0.941914 q 0.07408,0.03175 0.216958,0.07937 0.148166,0.04762 0.317499,0.04762 0.190499,0 0.317499,-0.127 0.132291,-0.121708 0.132291,-0.44979 v -6.667479 h 0.99483 l -0.01587,6.058939 q 0,0.127 0.0053,0.259291 0.0053,0.137583 0.0053,0.301624 0,0.423332 -0.09525,0.788456 -0.09525,0.365124 -0.349249,0.587373 -0.253999,0.222249 -0.73554,0.222249 z m 0.693207,-9.149262 q -0.291041,0 -0.497416,-0.201083 -0.201082,-0.201082 -0.201082,-0.518581 0,-0.312208 0.201082,-0.51329 0.206375,-0.201083 0.497416,-0.201083 0.285749,0 0.486831,0.201083 0.206375,0.201082 0.206375,0.51329 0,0.317499 -0.206375,0.518581 -0.206374,0.201083 -0.486831,0.201083 z"
           id="path235166"
           style="stroke:#000000;stroke-opacity:1" />
        <path
           d="m -75.402372,-67.959099 q -0.746123,0 -1.201204,-0.507999 -0.455082,-0.507998 -0.455082,-1.418162 v -3.963446 h 0.984247 v 3.698864 q 0,0.433915 0.100541,0.714372 0.100541,0.280458 0.317499,0.418041 0.222249,0.132291 0.571498,0.137582 0.476249,0 0.825497,-0.253999 0.354541,-0.259291 0.587374,-0.714372 v -4.000488 h 0.978955 v 5.77319 h -0.836081 l -0.111124,-2.005535 0.105833,0.264582 q -0.06879,0.507999 -0.291041,0.931331 -0.216958,0.41804 -0.60854,0.672039 -0.38629,0.254 -0.968372,0.254 z"
           id="path235168"
           style="stroke:#000000;stroke-opacity:1" />
        <path
           d="m -70.90979,-68.075516 v -5.74144 h 0.99483 l -0.01588,5.74144 z m 0.502707,-6.667479 q -0.291041,0 -0.497415,-0.201082 -0.201083,-0.201083 -0.201083,-0.518582 0,-0.312207 0.201083,-0.51329 0.206374,-0.201083 0.497415,-0.201083 0.285749,0 0.486832,0.201083 0.206374,0.201083 0.206374,0.51329 0,0.317499 -0.206374,0.518582 -0.206375,0.201082 -0.486832,0.201082 z"
           id="path235170"
           style="stroke:#000000;stroke-opacity:1" />
        <path
           d="m -65.925083,-67.980266 q -0.804331,0 -1.396995,-0.365124 -0.592665,-0.365124 -0.915456,-1.037163 -0.32279,-0.67204 -0.32279,-1.582204 0,-0.957788 0.328082,-1.624536 0.333374,-0.666748 0.915455,-1.015997 0.587373,-0.35454 1.338788,-0.35454 0.719664,0 1.222371,0.280457 0.502707,0.275166 0.767289,0.735539 0.269874,0.460374 0.285749,1.015997 h -0.968372 q -0.01058,-0.211666 -0.08996,-0.41804 -0.07937,-0.206374 -0.238124,-0.370416 -0.15875,-0.169332 -0.407457,-0.269874 -0.243416,-0.105833 -0.587373,-0.105833 -0.799039,-0.0053 -1.180038,0.555623 -0.380999,0.560915 -0.380999,1.539871 0,1.047746 0.423332,1.598078 0.423332,0.550331 1.269996,0.550331 0.328082,0 0.587373,-0.148166 0.259291,-0.148166 0.412749,-0.38629 0.158749,-0.238124 0.169333,-0.507999 h 0.968372 q -0.01588,0.54504 -0.306916,0.978956 -0.291041,0.433915 -0.783164,0.682622 -0.492124,0.248708 -1.111247,0.248708 z"
           id="path235172"
           style="stroke:#000000;stroke-opacity:1" />
        <path
           d="m -60.247153,-67.996141 q -0.788456,0 -1.386412,-0.343957 -0.592665,-0.343957 -0.920747,-1.010705 -0.328082,-0.67204 -0.328082,-1.640412 0,-0.93133 0.338665,-1.598078 0.338666,-0.666748 0.931331,-1.021288 0.592664,-0.354541 1.34937,-0.354541 0.751415,0 1.285871,0.322791 0.539748,0.32279 0.830789,0.926038 0.291041,0.597957 0.285749,1.434037 0,0.169333 -0.01058,0.280458 -0.01058,0.111125 -0.01588,0.232832 h -4.01107 q 0.03704,0.952497 0.476248,1.444621 0.444499,0.486832 1.132413,0.486832 0.582082,0 0.899581,-0.243416 0.32279,-0.248708 0.407457,-0.634998 h 0.96308 q -0.03704,0.550331 -0.338666,0.936622 -0.296332,0.38629 -0.783164,0.587373 -0.486832,0.195791 -1.105955,0.195791 z m -1.127121,-3.513655 h 2.524117 q -0.01058,-0.740831 -0.365124,-1.164163 -0.354541,-0.423332 -1.084788,-0.423332 -0.767289,0 -1.164163,0.523873 -0.396874,0.518582 -0.433915,1.434037 0.04233,-0.216958 0.169332,-0.291041 0.132292,-0.07937 0.354541,-0.07937 z"
           id="path235174"
           style="stroke:#000000;stroke-opacity:1" />
      </g>
      <g
         aria-label="graveyard"
         transform="rotate(-174.58285)"
         id="text222137"
         style="font-size:10.5833px;line-height:1.25;font-family:'Spline Sans';-inkscape-font-specification:'Spline Sans';stroke-width:0.264583;stroke:#000000;stroke-opacity:1">
        <path
           d="m -159.03325,-89.561598 q -0.65616,0 -1.19062,-0.227541 -0.53445,-0.227541 -0.83079,-0.698497 -0.29633,-0.465666 -0.23812,-1.180038 h 0.9525 q -0.0159,0.396873 0.10054,0.677331 0.11641,0.280457 0.41275,0.428624 0.29633,0.148166 0.81491,0.148166 0.508,0 0.77787,-0.148166 0.26988,-0.148167 0.37042,-0.460374 0.10583,-0.312207 0.10583,-0.804331 v -1.550453 q -0.0476,0.238124 -0.21696,0.51329 -0.16404,0.275166 -0.49741,0.470957 -0.32808,0.195791 -0.87842,0.195791 -0.5027,0 -0.91016,-0.211666 -0.40746,-0.216958 -0.70379,-0.592665 -0.29104,-0.375707 -0.44979,-0.873122 -0.15346,-0.497415 -0.15346,-1.05833 0,-0.941914 0.3175,-1.576912 0.3175,-0.64029 0.83079,-0.96308 0.51329,-0.328082 1.10066,-0.328082 0.48154,0 0.78846,0.132291 0.31221,0.126999 0.49741,0.317499 0.18521,0.190499 0.27517,0.370415 v -0.709081 h 0.96837 v 5.831398 q 0,0.836081 -0.29104,1.338788 -0.29104,0.502706 -0.79904,0.724956 -0.5027,0.227541 -1.15358,0.232832 z m -0.0159,-3.455447 q 0.39687,0 0.66145,-0.127 0.26459,-0.132291 0.41804,-0.32279 0.15346,-0.1905 0.21167,-0.365124 v -2.455326 q -0.0476,-0.126999 -0.20637,-0.280457 -0.15875,-0.153458 -0.42334,-0.264583 -0.26458,-0.111124 -0.64558,-0.111124 -0.67733,0 -1.09537,0.486832 -0.41804,0.48154 -0.41804,1.47637 0,0.96308 0.41804,1.465787 0.42333,0.497415 1.0795,0.497415 z"
           id="path235177"
           style="stroke:#000000;stroke-opacity:1" />
        <path
           d="m -155.03277,-91.916382 v -5.77319 h 0.83608 l 0.10583,2.217201 -0.11641,-0.301624 q 0.037,-0.328082 0.14287,-0.682622 0.11113,-0.354541 0.31221,-0.661457 0.20637,-0.312207 0.52387,-0.502706 0.32279,-0.1905 0.78846,-0.1905 0.09,0 0.16933,0.01058 0.0847,0.01058 0.16404,0.02646 v 1.042455 q -0.13229,-0.04233 -0.28045,-0.05292 -0.14288,-0.01587 -0.26988,-0.01587 -0.25929,0 -0.52387,0.100542 -0.26458,0.100541 -0.49213,0.32279 -0.22754,0.216958 -0.3757,0.566207 v 3.894654 z"
           id="path235179"
           style="stroke:#000000;stroke-opacity:1" />
        <path
           d="m -149.75171,-91.852882 q -0.55033,0 -0.95249,-0.206374 -0.39688,-0.211666 -0.61383,-0.571499 -0.21167,-0.359832 -0.21167,-0.814914 0,-0.470956 0.18521,-0.793747 0.18521,-0.328082 0.53445,-0.534457 0.34925,-0.211666 0.84667,-0.317499 0.32808,-0.07408 0.69321,-0.116416 0.37041,-0.04233 0.70908,-0.06879 0.33866,-0.02646 0.57679,-0.03704 v -0.322791 q 0,-0.693206 -0.29104,-0.99483 -0.29105,-0.306916 -0.90488,-0.306916 -0.381,0 -0.67204,0.100542 -0.28575,0.100541 -0.4445,0.375707 -0.15874,0.269874 -0.15345,0.793747 h -0.92075 q -0.0635,-0.714372 0.20108,-1.185329 0.26459,-0.476249 0.79375,-0.709081 0.52917,-0.238124 1.25412,-0.238124 0.41275,0 0.78846,0.100541 0.3757,0.09525 0.66674,0.328082 0.29105,0.227541 0.46038,0.624415 0.16933,0.396874 0.16933,0.99483 v 3.836446 h -0.95779 l 0.0106,-1.254121 q -0.1323,0.597957 -0.59796,0.957789 -0.46037,0.359832 -1.16946,0.359832 z m 0.22755,-0.777873 q 0.38629,0 0.70908,-0.142874 0.32808,-0.142875 0.55033,-0.365124 0.22225,-0.222249 0.28046,-0.455082 v -1.12183 q -0.30692,0.02117 -0.68263,0.07408 -0.3757,0.04762 -0.66145,0.116416 -0.5715,0.132291 -0.85196,0.35454 -0.27516,0.22225 -0.27516,0.64029 0,0.248708 0.10583,0.455082 0.11112,0.201083 0.3175,0.32279 0.20637,0.116417 0.508,0.121708 z"
           id="path235181"
           style="stroke:#000000;stroke-opacity:1" />
        <path
           d="m -144.14787,-91.916382 -2.08491,-5.77319 h 1.12183 l 0.80433,2.619367 0.67733,2.153701 h 0.037 l 0.67204,-2.148409 0.80962,-2.624659 h 1.11654 l -2.08491,5.77319 z"
           id="path235183"
           style="stroke:#000000;stroke-opacity:1" />
        <path
           d="m -137.77145,-91.837007 q -0.78845,0 -1.38641,-0.343957 -0.59266,-0.343958 -0.92075,-1.010705 -0.32808,-0.67204 -0.32808,-1.640412 0,-0.93133 0.33867,-1.598078 0.33866,-0.666748 0.93133,-1.021289 0.59266,-0.35454 1.34937,-0.35454 0.75141,0 1.28587,0.322791 0.53975,0.32279 0.83079,0.926038 0.29104,0.597957 0.28575,1.434037 0,0.169333 -0.0106,0.280458 -0.0106,0.111124 -0.0159,0.232832 h -4.01107 q 0.037,0.952497 0.47625,1.444621 0.4445,0.486832 1.13241,0.486832 0.58208,0 0.89958,-0.243416 0.32279,-0.248708 0.40746,-0.634998 h 0.96308 q -0.037,0.550331 -0.33867,0.936622 -0.29633,0.38629 -0.78316,0.587373 -0.48683,0.195791 -1.10596,0.195791 z m -1.12712,-3.513656 h 2.52412 q -0.0106,-0.740831 -0.36512,-1.164163 -0.35455,-0.423332 -1.08479,-0.423332 -0.76729,0 -1.16417,0.523874 -0.39687,0.518582 -0.43391,1.434037 0.0423,-0.216958 0.16933,-0.291041 0.13229,-0.07937 0.35454,-0.07937 z"
           id="path235185"
           style="stroke:#000000;stroke-opacity:1" />
        <path
           d="m -134.39539,-89.635681 v -0.941913 h 0.42863 q 0.38099,0 0.58737,-0.09525 0.21167,-0.08996 0.3175,-0.259291 0.10583,-0.169333 0.16933,-0.402165 0.0794,-0.280458 0.14288,-0.407457 0.0635,-0.121708 0.16404,-0.174625 h -0.3175 l -1.93675,-5.77319 h 1.09538 l 0.73553,2.587617 0.65088,2.185451 h 0.0423 l 0.62971,-2.185451 0.73554,-2.587617 h 1.09537 l -1.94204,5.77319 q -0.17462,0.523873 -0.34395,0.941914 -0.16934,0.423332 -0.39688,0.719664 -0.22754,0.301624 -0.5715,0.460374 -0.33866,0.158749 -0.85724,0.158749 z"
           id="path235187"
           style="stroke:#000000;stroke-opacity:1" />
        <path
           d="m -127.41042,-91.852882 q -0.55033,0 -0.9525,-0.206374 -0.39687,-0.211666 -0.61383,-0.571499 -0.21166,-0.359832 -0.21166,-0.814914 0,-0.470956 0.1852,-0.793747 0.18521,-0.328082 0.53446,-0.534457 0.34925,-0.211666 0.84667,-0.317499 0.32808,-0.07408 0.6932,-0.116416 0.37042,-0.04233 0.70908,-0.06879 0.33867,-0.02646 0.57679,-0.03704 v -0.322791 q 0,-0.693206 -0.29104,-0.99483 -0.29104,-0.306916 -0.90487,-0.306916 -0.381,0 -0.67204,0.100542 -0.28575,0.100541 -0.4445,0.375707 -0.15875,0.269874 -0.15346,0.793747 h -0.92074 q -0.0635,-0.714372 0.20108,-1.185329 0.26458,-0.476249 0.79375,-0.709081 0.52916,-0.238124 1.25412,-0.238124 0.41275,0 0.78845,0.100541 0.37571,0.09525 0.66675,0.328082 0.29104,0.227541 0.46038,0.624415 0.16933,0.396874 0.16933,0.99483 v 3.836446 h -0.95779 l 0.0106,-1.254121 q -0.13229,0.597957 -0.59795,0.957789 -0.46038,0.359832 -1.16946,0.359832 z m 0.22754,-0.777873 q 0.38629,0 0.70908,-0.142874 0.32809,-0.142875 0.55034,-0.365124 0.22224,-0.222249 0.28045,-0.455082 v -1.12183 q -0.30691,0.02117 -0.68262,0.07408 -0.37571,0.04762 -0.66146,0.116416 -0.57149,0.132291 -0.85195,0.35454 -0.27517,0.22225 -0.27517,0.64029 0,0.248708 0.10584,0.455082 0.11112,0.201083 0.31749,0.32279 0.20638,0.116417 0.508,0.121708 z"
           id="path235189"
           style="stroke:#000000;stroke-opacity:1" />
        <path
           d="m -123.02366,-91.916382 v -5.77319 h 0.83608 l 0.10583,2.217201 -0.11641,-0.301624 q 0.037,-0.328082 0.14287,-0.682622 0.11113,-0.354541 0.31221,-0.661457 0.20637,-0.312207 0.52387,-0.502706 0.32279,-0.1905 0.78846,-0.1905 0.09,0 0.16933,0.01058 0.0847,0.01058 0.16404,0.02646 v 1.042455 q -0.13229,-0.04233 -0.28046,-0.05292 -0.14287,-0.01587 -0.26987,-0.01587 -0.25929,0 -0.52387,0.100542 -0.26459,0.100541 -0.49213,0.32279 -0.22754,0.216958 -0.3757,0.566207 v 3.894654 z"
           id="path235191"
           style="stroke:#000000;stroke-opacity:1" />
        <path
           d="m -117.18169,-91.852882 q -0.70379,0 -1.21708,-0.370416 -0.508,-0.370415 -0.78316,-1.042455 -0.26988,-0.672039 -0.26988,-1.57162 0,-0.99483 0.33338,-1.650994 0.33866,-0.661457 0.86783,-0.984247 0.53445,-0.328082 1.12712,-0.328082 0.57679,0 0.90487,0.195791 0.33337,0.195791 0.48683,0.455081 0.15875,0.254 0.1905,0.439207 l 0.31221,0.05292 -0.381,0.333374 q -0.037,-0.111125 -0.17992,-0.253999 -0.14287,-0.148167 -0.40745,-0.254 -0.26459,-0.111124 -0.67204,-0.111124 -0.68263,0 -1.12713,0.51329 -0.44449,0.507998 -0.44449,1.613953 0,1.02658 0.41804,1.576912 0.42333,0.550331 1.08478,0.550331 0.41275,0 0.68263,-0.142874 0.27516,-0.142875 0.42862,-0.349249 0.15875,-0.206374 0.21696,-0.386291 l 0.0529,0.1905 -0.0529,0.195791 q -0.0265,0.174624 -0.11642,0.402165 -0.09,0.22225 -0.26987,0.433916 -0.17992,0.211666 -0.47096,0.35454 -0.28575,0.137583 -0.71437,0.137583 z m 1.57691,-0.0635 -0.005,-8.233808 h 0.97895 l 0.005,8.233808 z"
           id="path235193"
           style="stroke:#000000;stroke-opacity:1" />
      </g>
      <g
         aria-label="death"
         transform="matrix(-0.98424235,-0.17682478,0.38431545,-0.94696546,0,0)"
         id="text225741"
         style="font-size:10.5833px;line-height:1.25;font-family:'Spline Sans';-inkscape-font-specification:'Spline Sans';stroke-width:0.264583;stroke:#000000;stroke-opacity:1">
        <path
           d="m -311.5445,-10.916762 q -0.70379,0 -1.21708,-0.370415 -0.508,-0.370416 -0.78317,-1.042456 -0.26987,-0.672039 -0.26987,-1.57162 0,-0.99483 0.33337,-1.650994 0.33867,-0.661456 0.86783,-0.984247 0.53446,-0.328082 1.12713,-0.328082 0.57678,0 0.90487,0.195791 0.33337,0.195791 0.48683,0.455082 0.15875,0.253999 0.1905,0.439206 l 0.31221,0.05292 -0.381,0.333374 q -0.037,-0.111125 -0.17992,-0.253999 -0.14287,-0.148166 -0.40746,-0.253999 -0.26458,-0.111125 -0.67204,-0.111125 -0.68262,0 -1.12712,0.51329 -0.4445,0.507998 -0.4445,1.613953 0,1.02658 0.41804,1.576912 0.42334,0.550331 1.08479,0.550331 0.41275,0 0.68263,-0.142874 0.27516,-0.142875 0.42862,-0.349249 0.15875,-0.206374 0.21696,-0.386291 l 0.0529,0.1905 -0.0529,0.195791 q -0.0265,0.174624 -0.11642,0.402165 -0.09,0.22225 -0.26987,0.433916 -0.17992,0.211666 -0.47096,0.35454 -0.28575,0.137583 -0.71437,0.137583 z m 1.57691,-0.0635 -0.005,-8.233807 h 0.97895 l 0.005,8.233807 z"
           id="path235211"
           style="stroke:#000000;stroke-opacity:1" />
        <path
           d="m -305.0305,-10.900887 q -0.78846,0 -1.38641,-0.343957 -0.59267,-0.343958 -0.92075,-1.010705 -0.32808,-0.67204 -0.32808,-1.640412 0,-0.93133 0.33866,-1.598078 0.33867,-0.666748 0.93133,-1.021289 0.59267,-0.35454 1.34937,-0.35454 0.75142,0 1.28588,0.322791 0.53974,0.32279 0.83078,0.926038 0.29105,0.597957 0.28575,1.434037 0,0.169333 -0.0106,0.280458 -0.0106,0.111124 -0.0159,0.232832 h -4.01108 q 0.0371,0.952497 0.47625,1.444621 0.4445,0.486832 1.13242,0.486832 0.58208,0 0.89958,-0.243416 0.32279,-0.248708 0.40745,-0.634998 h 0.96308 q -0.037,0.550331 -0.33866,0.936622 -0.29633,0.38629 -0.78317,0.587373 -0.48683,0.195791 -1.10595,0.195791 z m -1.12712,-3.513656 h 2.52412 q -0.0106,-0.740831 -0.36513,-1.164162 -0.35454,-0.423332 -1.08479,-0.423332 -0.76729,0 -1.16416,0.523873 -0.39687,0.518582 -0.43392,1.434037 0.0423,-0.216958 0.16934,-0.291041 0.13229,-0.07938 0.35454,-0.07938 z"
           id="path235213"
           style="stroke:#000000;stroke-opacity:1" />
        <path
           d="m -299.98228,-10.916762 q -0.55033,0 -0.95249,-0.206374 -0.39688,-0.211666 -0.61384,-0.571499 -0.21166,-0.359832 -0.21166,-0.814914 0,-0.470956 0.18521,-0.793747 0.1852,-0.328082 0.53445,-0.534457 0.34925,-0.211666 0.84667,-0.317499 0.32808,-0.07408 0.6932,-0.116416 0.37042,-0.04233 0.70908,-0.06879 0.33867,-0.02646 0.57679,-0.03704 v -0.322791 q 0,-0.693206 -0.29104,-0.99483 -0.29104,-0.306915 -0.90487,-0.306915 -0.381,0 -0.67204,0.100541 -0.28575,0.100541 -0.4445,0.375707 -0.15875,0.269874 -0.15346,0.793747 h -0.92074 q -0.0635,-0.714372 0.20108,-1.185329 0.26458,-0.476249 0.79375,-0.709081 0.52916,-0.238124 1.25412,-0.238124 0.41275,0 0.78845,0.100541 0.37571,0.09525 0.66675,0.328082 0.29104,0.227541 0.46038,0.624415 0.16933,0.396874 0.16933,0.99483 v 3.836446 h -0.95779 l 0.0106,-1.254121 q -0.13229,0.597957 -0.59795,0.957789 -0.46038,0.359832 -1.16946,0.359832 z m 0.22754,-0.777873 q 0.38629,0 0.70908,-0.142874 0.32809,-0.142875 0.55034,-0.365124 0.22225,-0.222249 0.28045,-0.455082 v -1.12183 q -0.30691,0.02117 -0.68262,0.07408 -0.37571,0.04762 -0.66146,0.116416 -0.57149,0.132291 -0.85195,0.35454 -0.27517,0.22225 -0.27517,0.64029 0,0.248708 0.10584,0.455082 0.11112,0.201083 0.31749,0.322791 0.20638,0.116416 0.508,0.121707 z"
           id="path235215"
           style="stroke:#000000;stroke-opacity:1" />
        <path
           d="m -294.08211,-10.900887 q -0.67204,0 -1.02658,-0.343957 -0.34924,-0.349249 -0.34924,-0.989539 v -3.132657 q 0,-0.169332 0.0688,-0.312207 0.0688,-0.148166 0.20108,-0.190499 l -0.26987,-0.656165 v -0.179916 l 0.23812,-1.725078 h 0.73554 v 6.032481 q 0,0.338666 0.15875,0.460374 0.15875,0.116416 0.54504,0.116416 0.28046,0 0.47625,0 0.19579,-0.0053 0.40745,-0.02117 v 0.867831 q -0.29104,0.05292 -0.60324,0.0635 -0.30692,0.01058 -0.58209,0.01058 z m -2.2172,-4.968859 v -0.883706 h 3.35491 v 0.883706 z"
           id="path235217"
           style="stroke:#000000;stroke-opacity:1" />
        <path
           d="m -291.78025,-10.980262 v -8.228515 h 0.97895 v 2.455325 l -0.0847,1.645703 0.0476,0.465666 -0.0847,-0.375708 q 0.0635,-0.48154 0.26459,-0.904872 0.20637,-0.423332 0.59795,-0.687914 0.39688,-0.264583 1.02129,-0.264583 0.82021,0 1.26471,0.486832 0.44449,0.486832 0.44449,1.481662 v 3.926404 h -0.98424 v -3.603613 q 0,-0.70379 -0.23284,-1.037164 -0.22754,-0.333374 -0.84137,-0.333374 -0.47095,0 -0.8202,0.280458 -0.34925,0.275166 -0.59267,0.746122 v 3.947571 z"
           id="path235219"
           style="stroke:#000000;stroke-opacity:1" />
      </g>
      <g
         aria-label="entropy"
         transform="rotate(-15.149583)"
         id="text232875"
         style="font-size:10.5833px;line-height:1.25;font-family:'Spline Sans';-inkscape-font-specification:'Spline Sans';stroke-width:0.264583;stroke:#000000;stroke-opacity:1">
        <path
           d="m 186.41613,134.90417 q -0.78846,0 -1.38641,-0.34395 -0.59267,-0.34396 -0.92075,-1.01071 -0.32808,-0.67204 -0.32808,-1.64041 0,-0.93133 0.33866,-1.59808 0.33867,-0.66675 0.93133,-1.02129 0.59267,-0.35454 1.34937,-0.35454 0.75142,0 1.28588,0.32279 0.53974,0.32279 0.83078,0.92604 0.29105,0.59796 0.28575,1.43404 0,0.16933 -0.0106,0.28046 -0.0106,0.11112 -0.0159,0.23283 h -4.01108 q 0.037,0.9525 0.47625,1.44462 0.4445,0.48683 1.13242,0.48683 0.58208,0 0.89958,-0.24341 0.32279,-0.24871 0.40745,-0.635 h 0.96308 q -0.037,0.55033 -0.33866,0.93662 -0.29633,0.38629 -0.78317,0.58737 -0.48683,0.19579 -1.10595,0.19579 z m -1.12712,-3.51365 h 2.52412 q -0.0106,-0.74083 -0.36513,-1.16417 -0.35454,-0.42333 -1.08479,-0.42333 -0.76729,0 -1.16416,0.52388 -0.39687,0.51858 -0.43392,1.43403 0.0423,-0.21695 0.16934,-0.29104 0.13229,-0.0794 0.35454,-0.0794 z"
           id="path235196"
           style="stroke:#000000;stroke-opacity:1" />
        <path
           d="m 190.08323,134.8248 v -5.77319 h 0.83608 l 0.10584,2.17487 -0.0952,-0.43921 q 0.0688,-0.51329 0.28574,-0.93133 0.22225,-0.42333 0.61913,-0.67204 0.40216,-0.254 1.0107,-0.254 0.80433,0 1.24883,0.49742 0.44979,0.49212 0.44979,1.47107 v 3.92641 h -0.98424 v -3.60361 q 0,-0.49213 -0.11113,-0.79375 -0.10583,-0.30163 -0.34396,-0.43921 -0.23283,-0.13758 -0.62441,-0.13758 -0.47096,0 -0.83079,0.25929 -0.35454,0.25929 -0.58208,0.71437 v 4.00049 z"
           id="path235198"
           style="stroke:#000000;stroke-opacity:1" />
        <path
           d="m 197.75082,134.90417 q -0.67204,0 -1.02658,-0.34395 -0.34924,-0.34925 -0.34924,-0.98954 v -3.13266 q 0,-0.16933 0.0688,-0.31221 0.0688,-0.14816 0.20108,-0.1905 l -0.26987,-0.65616 v -0.17992 l 0.23812,-1.72507 h 0.73554 v 6.03248 q 0,0.33866 0.15875,0.46037 0.15875,0.11642 0.54504,0.11642 0.28046,0 0.47625,0 0.19579,-0.005 0.40745,-0.0212 v 0.86783 q -0.29104,0.0529 -0.60324,0.0635 -0.30692,0.0106 -0.58209,0.0106 z m -2.2172,-4.96886 v -0.8837 h 3.35491 v 0.8837 z"
           id="path235200"
           style="stroke:#000000;stroke-opacity:1" />
        <path
           d="m 200.04738,134.8248 v -5.77319 h 0.83609 l 0.10583,2.2172 -0.11642,-0.30162 q 0.037,-0.32809 0.14288,-0.68263 0.11112,-0.35454 0.3122,-0.66145 0.20638,-0.31221 0.52388,-0.50271 0.32279,-0.1905 0.78845,-0.1905 0.09,0 0.16934,0.0106 0.0847,0.0106 0.16404,0.0265 v 1.04246 q -0.13229,-0.0423 -0.28046,-0.0529 -0.14288,-0.0159 -0.26987,-0.0159 -0.2593,0 -0.52388,0.10054 -0.26458,0.10054 -0.49212,0.32279 -0.22754,0.21696 -0.37571,0.5662 v 3.89466 z"
           id="path235202"
           style="stroke:#000000;stroke-opacity:1" />
        <path
           d="m 206.14865,134.90417 q -0.762,0 -1.33879,-0.34395 -0.5715,-0.34396 -0.89429,-1.01071 -0.3175,-0.67204 -0.3175,-1.6457 0,-0.92075 0.33867,-1.5875 0.33866,-0.66674 0.92074,-1.02129 0.58738,-0.35983 1.31233,-0.35983 0.78846,0 1.35996,0.35983 0.57679,0.35455 0.88899,1.02129 0.31221,0.66675 0.31221,1.5875 0,0.97366 -0.34925,1.6457 -0.34395,0.66675 -0.93133,1.01071 -0.58737,0.34395 -1.30174,0.34395 z m 0.0212,-0.86783 q 0.70908,0 1.13242,-0.52916 0.42333,-0.52917 0.42333,-1.60337 0,-1.02658 -0.41804,-1.56104 -0.41275,-0.53975 -1.15887,-0.53975 -0.70379,0 -1.12712,0.53975 -0.41805,0.53446 -0.41805,1.56104 0,1.03716 0.42334,1.58749 0.42862,0.54504 1.14299,0.54504 z"
           id="path235204"
           style="stroke:#000000;stroke-opacity:1" />
        <path
           d="m 212.58858,134.8883 q -0.56091,0 -0.90487,-0.19579 -0.33866,-0.20109 -0.50271,-0.46038 -0.16404,-0.25929 -0.19579,-0.43391 l -0.3122,-0.0529 0.3757,-0.27516 q 0.0476,0.127 0.20638,0.26987 0.15875,0.14287 0.42862,0.24871 0.27517,0.10054 0.65087,0.10054 0.65088,0 1.0795,-0.53446 0.43392,-0.53445 0.43392,-1.67745 0,-1.02658 -0.40217,-1.54516 -0.39687,-0.52388 -1.016,-0.52388 -0.41804,0 -0.70908,0.1323 -0.28575,0.13229 -0.45508,0.32279 -0.16404,0.1852 -0.21696,0.35983 v -0.39158 q 0.0106,-0.16934 0.10584,-0.38629 0.0952,-0.22225 0.29104,-0.42863 0.20108,-0.20637 0.51329,-0.33866 0.3122,-0.13759 0.76199,-0.13759 0.66146,0 1.143,0.35454 0.48154,0.35455 0.74083,1.00013 0.25929,0.64558 0.25929,1.51341 0,0.78845 -0.19579,1.37054 -0.19579,0.57679 -0.52916,0.95778 -0.32809,0.381 -0.73554,0.56621 -0.40217,0.18521 -0.81492,0.18521 z m -2.51882,2.06903 v -7.90572 h 0.96837 l 0.0106,0.77787 v 3.64066 l -0.0635,0.32808 0.0635,1.03187 0.005,2.12724 z"
           id="path235206"
           style="stroke:#000000;stroke-opacity:1" />
        <path
           d="m 215.94876,137.1055 v -0.94191 h 0.42862 q 0.381,0 0.58737,-0.0952 0.21167,-0.09 0.3175,-0.25929 0.10584,-0.16934 0.16934,-0.40217 0.0794,-0.28046 0.14287,-0.40746 0.0635,-0.1217 0.16404,-0.17462 h -0.3175 l -1.93674,-5.77319 h 1.09537 l 0.73554,2.58762 0.65087,2.18545 h 0.0423 l 0.6297,-2.18545 0.73554,-2.58762 h 1.09537 l -1.94203,5.77319 q -0.17463,0.52387 -0.34396,0.94191 -0.16933,0.42333 -0.39687,0.71967 -0.22754,0.30162 -0.5715,0.46037 -0.33867,0.15875 -0.85725,0.15875 z"
           id="path235208"
           style="stroke:#000000;stroke-opacity:1" />
      </g>
    </g>
    <g
       id="g236876"
       style="stroke-width:1.77758628;stroke-linecap:round;stroke-miterlimit:4;stroke-dasharray:none"
       transform="matrix(0.44376838,-0.04960721,0.04960721,0.44376838,93.118004,60.371869)">
      <path
         style="fill:none;stroke:#ffffff;stroke-width:1.77758628;stroke-linecap:round;stroke-linejoin:miter;stroke-miterlimit:4;stroke-dasharray:none;stroke-opacity:1;stroke-dashoffset:17.77586281"
         d="m 159.85979,113.43138 c -3.51165,7.63693 6.7352,14.23094 0.66407,21.88026"
         id="root1"
         sodipodi:nodetypes="cc" />
      <path
         style="fill:none;stroke:#ffffff;stroke-width:1.77758628;stroke-linecap:round;stroke-linejoin:miter;stroke-miterlimit:4;stroke-dasharray:none;stroke-opacity:1"
         d="m 181.75804,108.64734 c 7.94374,6.87599 2.00412,10.03627 4.44321,16.0728 1.12109,2.77457 4.91635,2.92652 6.34556,5.11314"
         id="root2"
         sodipodi:nodetypes="csc" />
      <path
         style="fill:none;stroke:#ffffff;stroke-width:1.77758628;stroke-linecap:round;stroke-linejoin:miter;stroke-miterlimit:4;stroke-dasharray:none;stroke-opacity:1"
         d="m 202.37606,100.12462 c 3.24639,10.47535 17.19642,5.11282 13.95967,17.7334"
         id="root3"
         sodipodi:nodetypes="cc" />
    </g>
  </g>
</svg>
